<?xml version="1.0" encoding="utf-8"?>
<svg width="512px" height="440.803px" viewBox="0 0 512 440.803" version="1.1" xmlns:xlink="http://www.w3.org/1999/xlink" xmlns="http://www.w3.org/2000/svg">
  <defs>
    <path d="M512 0L512 0L512 440.803L0 440.803L0 0L512 0Z" id="path_1" />
    <clipPath id="clip_1">
      <use xlink:href="#path_1" clip-rule="evenodd" fill-rule="evenodd" />
    </clipPath>
  </defs>
  <g id="crabston">
    <path d="M512 0L512 0L512 440.803L0 440.803L0 0L512 0Z" id="crabston" fill="none" stroke="none" />
    <path d="M459.536 177.026C466.522 162.747 469.028 149.389 468.105 137.222C467.045 123.243 461.461 110.86 452.958 100.469C452.347 99.7249 451.249 99.6149 450.503 100.223C449.992 100.643 449.761 101.316 449.906 101.962C452.018 115.196 453.356 127.962 452.186 139.655C451.071 150.83 447.645 161.062 440.376 169.844L439.642 169.553C438.027 168.913 437.163 168.575 436.048 168.907L435.94 168.943C434.785 169.331 434.203 170.232 433.014 172.069L432.32 173.144C427.639 180.288 424.177 188.057 422.538 196.732C421.027 204.727 421.061 213.492 423.104 223.242L418.777 222.41C417.856 222.235 416.96 222.819 416.75 223.733C413.798 233.418 409.298 241.281 403.326 247.395C397.346 253.517 389.86 257.911 380.946 260.657C380.245 260.875 379.755 261.507 379.718 262.24L378.993 277.467C378.948 278.428 379.691 279.244 380.652 279.29L380.996 279.272C393.464 278.109 405.239 274.976 416.196 269.562C427.187 264.133 437.357 256.409 446.58 246.074C447.155 245.43 447.172 244.462 446.62 243.799L442.732 238.83C443.696 227.791 445.656 218.335 448.405 210.176C451.201 201.883 454.829 194.893 459.078 188.903L459.148 188.797C460.219 187.292 461.159 186.209 461.849 185.409L461.855 185.402C463.042 184.027 463.707 183.258 463.673 182.011C463.633 180.508 462.606 179.638 460.302 177.682L459.536 177.026ZM376.009 304.036L381.184 291.102C381.523 290.26 382.452 289.818 383.319 290.087C390.106 292.198 396.97 291.908 403.894 289.549C410.941 287.149 418.081 282.603 425.289 276.265C425.762 275.849 426.423 275.721 427.018 275.929C427.613 276.137 428.05 276.649 428.161 277.269L429.678 285.764C437.022 283.327 443.625 279.5 448.968 274.454C454.467 269.258 458.644 262.752 460.937 255.116C461.172 254.329 461.923 253.812 462.742 253.875L469.524 254.173C478.27 247.353 486.261 239.866 492.704 231.043C499.24 222.095 504.212 211.739 506.801 199.259C506.971 198.447 507.689 197.868 508.518 197.873C509.347 197.877 510.058 198.465 510.219 199.279C513.519 216.01 512.124 230.469 506.921 243.076C501.95 255.117 493.521 265.426 482.406 274.372L485.868 277.834C486.549 278.514 486.549 279.622 485.868 280.303L485.8 280.367C478.636 287.762 470.277 293.433 460.763 297.409C451.661 301.214 441.495 303.473 430.3 304.215L429.676 312.029C429.609 312.883 428.933 313.562 428.079 313.633C418.519 314.438 409.484 314.208 400.965 312.995C392.425 311.778 384.408 309.569 376.902 306.417C376.013 306.043 375.595 305.02 375.967 304.13L376.009 304.036ZM365.045 329.131L370.752 317.878C371.186 317.019 372.234 316.673 373.094 317.106L373.396 317.298C379.451 321.918 386.535 325.042 394.404 327.011C402.369 329.003 411.139 329.815 420.464 329.793C421.425 329.793 422.206 330.574 422.206 331.534L422.211 337.15C430.583 338.324 437.607 341.332 442.754 346.867C448.089 352.605 451.335 360.998 451.882 372.8C458.282 379.926 461.475 391.793 461.037 404.477C460.615 416.702 456.829 429.76 449.304 440.09C448.851 440.708 448.048 440.957 447.326 440.704C446.603 440.451 446.13 439.755 446.162 438.99C446.67 427.797 446.864 417.211 446.15 407.721C445.473 398.763 443.985 390.812 441.183 384.318L436.03 383.64C435.242 383.537 434.623 382.914 434.527 382.125C433.51 375.841 431.381 370.156 428.161 365.075C425.233 360.454 421.397 356.323 416.672 352.681C416.1 353.366 415.385 353.954 414.545 354.442C412.205 355.803 408.831 356.387 404.901 356.169C401.138 355.963 396.796 355.023 392.323 353.344C382.377 349.607 371.672 342.155 365.076 330.822C364.775 330.301 364.763 329.662 365.045 329.131L365.045 329.131ZM43.895 137.222C42.972 149.389 45.478 162.747 52.464 177.026L51.698 177.682C49.394 179.638 48.367 180.508 48.327 182.011C48.293 183.258 48.9576 184.027 50.1447 185.402L50.151 185.409C50.841 186.209 51.781 187.292 52.852 188.797L52.922 188.903C57.171 194.893 60.799 201.883 63.595 210.176C66.344 218.335 68.304 227.791 69.268 238.83L65.38 243.799C64.8278 244.462 64.8448 245.43 65.42 246.074C74.643 256.409 84.813 264.133 95.804 269.562C106.761 274.976 118.536 278.109 131.004 279.272L131.348 279.29C132.309 279.244 133.052 278.428 133.007 277.467L132.282 262.24C132.246 261.528 131.774 260.879 131.054 260.657C122.14 257.911 114.654 253.517 108.674 247.395C102.702 241.281 98.202 233.418 95.25 223.733C95.0397 222.819 94.1444 222.235 93.223 222.41L88.896 223.242C90.939 213.492 90.973 204.727 89.462 196.732C87.823 188.057 84.361 180.288 79.68 173.144L78.986 172.069C77.797 170.232 77.215 169.331 76.06 168.943L75.952 168.907C74.837 168.575 73.973 168.913 72.358 169.553L71.624 169.844C64.355 161.062 60.929 150.83 59.814 139.655C58.644 127.962 59.982 115.196 62.094 101.962C62.234 101.336 62.025 100.656 61.497 100.223C60.7505 99.6149 59.6529 99.7249 59.042 100.469C50.539 110.86 44.955 123.243 43.895 137.222ZM130.816 291.102L136.033 304.13C136.405 305.02 135.987 306.043 135.098 306.417C127.592 309.569 119.575 311.778 111.035 312.995C102.516 314.208 93.481 314.438 83.921 313.633C83.0674 313.562 82.3911 312.883 82.324 312.029L81.7 304.215C70.505 303.473 60.339 301.214 51.237 297.409C41.723 293.433 33.364 287.762 26.2 280.367L26.132 280.303C25.4508 279.621 25.4508 278.516 26.132 277.834L29.594 274.372C18.479 265.426 10.05 255.117 5.07896 243.076C-0.124038 230.469 -1.51904 216.01 1.77896 199.279C1.93949 198.465 2.65106 197.876 3.48079 197.872C4.31052 197.867 5.02893 198.447 5.19896 199.259C7.78796 211.739 12.76 222.095 19.296 231.043C25.739 239.866 33.73 247.353 42.476 254.173L49.258 253.875C50.0767 253.812 50.8282 254.329 51.063 255.116C53.356 262.752 57.533 269.258 63.032 274.454C68.375 279.5 74.978 283.327 82.322 285.764L83.839 277.269C83.9504 276.649 84.3871 276.137 84.9819 275.929C85.5767 275.721 86.2374 275.849 86.711 276.265C93.919 282.603 101.059 287.149 108.106 289.549C115.03 291.908 121.894 292.198 128.681 290.085C129.549 289.818 130.476 290.26 130.816 291.102ZM141.248 317.878L146.955 329.131C147.226 329.643 147.236 330.281 146.924 330.822C140.328 342.155 129.623 349.607 119.677 353.344C115.204 355.023 110.862 355.963 107.099 356.169C103.169 356.387 99.795 355.803 97.455 354.442C96.615 353.954 95.9 353.366 95.328 352.681C90.603 356.323 86.767 360.454 83.839 365.075C80.619 370.156 78.49 375.841 77.473 382.125C77.3765 382.914 76.758 383.537 75.97 383.64L70.817 384.318C68.015 390.812 66.527 398.763 65.85 407.721C65.136 417.211 65.33 427.797 65.842 438.99C65.8761 439.757 65.403 440.456 64.678 440.71C63.9529 440.963 63.1474 440.712 62.696 440.09C55.171 429.76 51.385 416.702 50.963 404.477C50.525 391.793 53.718 379.926 60.118 372.8C60.665 360.998 63.911 352.605 69.246 346.867C74.393 341.332 81.417 338.324 89.789 337.15L89.789 331.534C89.7939 330.572 90.5741 329.795 91.536 329.793C100.861 329.815 109.631 329.003 117.596 327.011C125.465 325.042 132.549 321.918 138.604 317.298L138.906 317.106C139.766 316.673 140.814 317.019 141.248 317.878Z" id="legs" fill="#FFFFFF" fill-rule="evenodd" stroke="none" clip-path="url(#clip_1)" />
    <path d="M459.536 177.026C466.522 162.747 469.028 149.389 468.105 137.222C467.045 123.243 461.461 110.86 452.958 100.469C452.347 99.7249 451.249 99.6149 450.503 100.223C449.992 100.643 449.761 101.316 449.906 101.962C452.018 115.196 453.356 127.962 452.186 139.655C451.071 150.83 447.645 161.062 440.376 169.844L439.642 169.553C438.027 168.913 437.163 168.575 436.048 168.907L435.94 168.943C434.785 169.331 434.203 170.232 433.014 172.069L432.32 173.144C427.639 180.288 424.177 188.057 422.538 196.732C421.027 204.727 421.061 213.492 423.104 223.242L418.777 222.41C417.856 222.235 416.96 222.819 416.75 223.733C413.798 233.418 409.298 241.281 403.326 247.395C397.346 253.517 389.86 257.911 380.946 260.657C380.245 260.875 379.755 261.507 379.718 262.24L378.993 277.467C378.948 278.428 379.691 279.244 380.652 279.29L380.996 279.272C393.464 278.109 405.239 274.976 416.196 269.562C427.187 264.133 437.357 256.409 446.58 246.074C447.155 245.43 447.172 244.462 446.62 243.799L442.732 238.83C443.696 227.791 445.656 218.335 448.405 210.176C451.201 201.883 454.829 194.893 459.078 188.903L459.148 188.797C460.219 187.292 461.159 186.209 461.849 185.409L461.855 185.402C463.042 184.027 463.707 183.258 463.673 182.011C463.633 180.508 462.606 179.638 460.302 177.682L459.536 177.026ZM376.009 304.036L381.184 291.102C381.523 290.26 382.452 289.818 383.319 290.087C390.106 292.198 396.97 291.908 403.894 289.549C410.941 287.149 418.081 282.603 425.289 276.265C425.762 275.849 426.423 275.721 427.018 275.929C427.613 276.137 428.05 276.649 428.161 277.269L429.678 285.764C437.022 283.327 443.625 279.5 448.968 274.454C454.467 269.258 458.644 262.752 460.937 255.116C461.172 254.329 461.923 253.812 462.742 253.875L469.524 254.173C478.27 247.353 486.261 239.866 492.704 231.043C499.24 222.095 504.212 211.739 506.801 199.259C506.971 198.447 507.689 197.868 508.518 197.873C509.347 197.877 510.058 198.465 510.219 199.279C513.519 216.01 512.124 230.469 506.921 243.076C501.95 255.117 493.521 265.426 482.406 274.372L485.868 277.834C486.549 278.514 486.549 279.622 485.868 280.303L485.8 280.367C478.636 287.762 470.277 293.433 460.763 297.409C451.661 301.214 441.495 303.473 430.3 304.215L429.676 312.029C429.609 312.883 428.933 313.562 428.079 313.633C418.519 314.438 409.484 314.208 400.965 312.995C392.425 311.778 384.408 309.569 376.902 306.417C376.013 306.043 375.595 305.02 375.967 304.13L376.009 304.036ZM365.045 329.131L370.752 317.878C371.186 317.019 372.234 316.673 373.094 317.106L373.396 317.298C379.451 321.918 386.535 325.042 394.404 327.011C402.369 329.003 411.139 329.815 420.464 329.793C421.425 329.793 422.206 330.574 422.206 331.534L422.211 337.15C430.583 338.324 437.607 341.332 442.754 346.867C448.089 352.605 451.335 360.998 451.882 372.8C458.282 379.926 461.475 391.793 461.037 404.477C460.615 416.702 456.829 429.76 449.304 440.09C448.851 440.708 448.048 440.957 447.326 440.704C446.603 440.451 446.13 439.755 446.162 438.99C446.67 427.797 446.864 417.211 446.15 407.721C445.473 398.763 443.985 390.812 441.183 384.318L436.03 383.64C435.242 383.537 434.623 382.914 434.527 382.125C433.51 375.841 431.381 370.156 428.161 365.075C425.233 360.454 421.397 356.323 416.672 352.681C416.1 353.366 415.385 353.954 414.545 354.442C412.205 355.803 408.831 356.387 404.901 356.169C401.138 355.963 396.796 355.023 392.323 353.344C382.377 349.607 371.672 342.155 365.076 330.822C364.775 330.301 364.763 329.662 365.045 329.131L365.045 329.131ZM43.895 137.222C42.972 149.389 45.478 162.747 52.464 177.026L51.698 177.682C49.394 179.638 48.367 180.508 48.327 182.011C48.293 183.258 48.9576 184.027 50.1447 185.402L50.151 185.409C50.841 186.209 51.781 187.292 52.852 188.797L52.922 188.903C57.171 194.893 60.799 201.883 63.595 210.176C66.344 218.335 68.304 227.791 69.268 238.83L65.38 243.799C64.8278 244.462 64.8448 245.43 65.42 246.074C74.643 256.409 84.813 264.133 95.804 269.562C106.761 274.976 118.536 278.109 131.004 279.272L131.348 279.29C132.309 279.244 133.052 278.428 133.007 277.467L132.282 262.24C132.246 261.528 131.774 260.879 131.054 260.657C122.14 257.911 114.654 253.517 108.674 247.395C102.702 241.281 98.202 233.418 95.25 223.733C95.0397 222.819 94.1444 222.235 93.223 222.41L88.896 223.242C90.939 213.492 90.973 204.727 89.462 196.732C87.823 188.057 84.361 180.288 79.68 173.144L78.986 172.069C77.797 170.232 77.215 169.331 76.06 168.943L75.952 168.907C74.837 168.575 73.973 168.913 72.358 169.553L71.624 169.844C64.355 161.062 60.929 150.83 59.814 139.655C58.644 127.962 59.982 115.196 62.094 101.962C62.234 101.336 62.025 100.656 61.497 100.223C60.7505 99.6149 59.6529 99.7249 59.042 100.469C50.539 110.86 44.955 123.243 43.895 137.222ZM130.816 291.102L136.033 304.13C136.405 305.02 135.987 306.043 135.098 306.417C127.592 309.569 119.575 311.778 111.035 312.995C102.516 314.208 93.481 314.438 83.921 313.633C83.0674 313.562 82.3911 312.883 82.324 312.029L81.7 304.215C70.505 303.473 60.339 301.214 51.237 297.409C41.723 293.433 33.364 287.762 26.2 280.367L26.132 280.303C25.4508 279.621 25.4508 278.516 26.132 277.834L29.594 274.372C18.479 265.426 10.05 255.117 5.07896 243.076C-0.124038 230.469 -1.51904 216.01 1.77896 199.279C1.93949 198.465 2.65106 197.876 3.48079 197.872C4.31052 197.867 5.02893 198.447 5.19896 199.259C7.78796 211.739 12.76 222.095 19.296 231.043C25.739 239.866 33.73 247.353 42.476 254.173L49.258 253.875C50.0767 253.812 50.8282 254.329 51.063 255.116C53.356 262.752 57.533 269.258 63.032 274.454C68.375 279.5 74.978 283.327 82.322 285.764L83.839 277.269C83.9504 276.649 84.3871 276.137 84.9819 275.929C85.5767 275.721 86.2374 275.849 86.711 276.265C93.919 282.603 101.059 287.149 108.106 289.549C115.03 291.908 121.894 292.198 128.681 290.085C129.549 289.818 130.476 290.26 130.816 291.102ZM141.248 317.878L146.955 329.131C147.226 329.643 147.236 330.281 146.924 330.822C140.328 342.155 129.623 349.607 119.677 353.344C115.204 355.023 110.862 355.963 107.099 356.169C103.169 356.387 99.795 355.803 97.455 354.442C96.615 353.954 95.9 353.366 95.328 352.681C90.603 356.323 86.767 360.454 83.839 365.075C80.619 370.156 78.49 375.841 77.473 382.125C77.3765 382.914 76.758 383.537 75.97 383.64L70.817 384.318C68.015 390.812 66.527 398.763 65.85 407.721C65.136 417.211 65.33 427.797 65.842 438.99C65.8761 439.757 65.403 440.456 64.678 440.71C63.9529 440.963 63.1474 440.712 62.696 440.09C55.171 429.76 51.385 416.702 50.963 404.477C50.525 391.793 53.718 379.926 60.118 372.8C60.665 360.998 63.911 352.605 69.246 346.867C74.393 341.332 81.417 338.324 89.789 337.15L89.789 331.534C89.7939 330.572 90.5741 329.795 91.536 329.793C100.861 329.815 109.631 329.003 117.596 327.011C125.465 325.042 132.549 321.918 138.604 317.298L138.906 317.106C139.766 316.673 140.814 317.019 141.248 317.878Z" id="legs" fill="#FFFFFF" fill-rule="evenodd" stroke="none" clip-path="url(#clip_1)" />
    <path d="M342.33 1C357.155 31.995 365.004 58.733 363.941 80.021C338.359 66.854 320.23 46.222 310.082 22.657C295.537 62.051 327.407 101.622 359.536 113.02C355.832 133.219 355.33 149.182 364.311 159.493L316.77 191.722L346.805 220.052C369.084 206.91 381.097 186.509 391.564 164.508C417.308 150.025 413.667 94.817 404.994 70.683C394.206 40.66 371.081 14.993 342.33 1L342.33 1ZM169.126 1C154.301 31.995 146.452 58.733 147.515 80.021C173.097 66.854 191.226 46.222 201.374 22.657C215.919 62.051 184.049 101.622 151.92 113.02C155.624 133.219 156.126 149.182 147.145 159.493L190.429 189.015L164.651 220.052C142.372 206.91 130.358 186.509 119.892 164.508C94.1479 150.025 97.7889 94.817 106.462 70.683C117.25 40.66 140.375 14.993 169.126 1L169.126 1Z" id="claws" fill="#FFFFFF" fill-rule="evenodd" stroke="none" clip-path="url(#clip_1)" />
    <path d="M342.33 1C357.155 31.995 365.004 58.733 363.941 80.021C338.359 66.854 320.23 46.222 310.082 22.657C295.537 62.051 327.407 101.622 359.536 113.02C355.832 133.219 355.33 149.182 364.311 159.493L316.77 191.722L346.805 220.052C369.084 206.91 381.097 186.509 391.564 164.508C417.308 150.025 413.667 94.817 404.994 70.683C394.206 40.66 371.081 14.993 342.33 1L342.33 1ZM169.126 1C154.301 31.995 146.452 58.733 147.515 80.021C173.097 66.854 191.226 46.222 201.374 22.657C215.919 62.051 184.049 101.622 151.92 113.02C155.624 133.219 156.126 149.182 147.145 159.493L190.429 189.015L164.651 220.052C142.372 206.91 130.358 186.509 119.892 164.508C94.1479 150.025 97.7889 94.817 106.462 70.683C117.25 40.66 140.375 14.993 169.126 1L169.126 1Z" id="claws" fill="#FFFFFF" fill-rule="evenodd" stroke="none" clip-path="url(#clip_1)" />
    <path d="M291.033 177.868L275.589 175.68C263.826 172.422 252.215 172.154 240.74 174.768L220.333 176.619C131.752 176.537 74.5531 255.504 143.731 321.845C153.132 330.861 164.706 339.89 179.075 347.979C233.111 378.398 284.44 379.057 358.816 327.173C382.541 310.622 392.504 285.858 397.914 255.638C396.245 238.376 391.658 225.053 384.864 214.712C376.055 201.302 363.533 192.903 348.84 187.434C329.57 182.13 310.303 178.73 291.033 177.868L291.033 177.868Z" id="body" fill="#FFFFFF" fill-rule="evenodd" stroke="none" clip-path="url(#clip_1)" />
    <path d="M291.033 177.868L275.589 175.68C263.826 172.422 252.215 172.154 240.74 174.768L220.333 176.619C131.752 176.537 74.5531 255.504 143.731 321.845C153.132 330.861 164.706 339.89 179.075 347.979C233.111 378.398 284.44 379.057 358.816 327.173C382.541 310.622 392.504 285.858 397.914 255.638C396.245 238.376 391.658 225.053 384.864 214.712C376.055 201.302 363.533 192.903 348.84 187.434C329.57 182.13 310.303 178.73 291.033 177.868L291.033 177.868Z" id="body" fill="#FFFFFF" fill-rule="evenodd" stroke="none" clip-path="url(#clip_1)" />
    <path d="M293.816 110C281.196 110 270.963 120.23 270.963 132.853C270.963 145.019 280.47 154.963 292.461 155.665C292.902 175.759 290.105 194.465 281.121 210.847L306.543 210.847C313.27 188.991 313.099 168.854 307.865 150.879C313.225 146.694 316.67 140.178 316.67 132.853C316.67 120.23 306.439 110 293.816 110L293.816 110ZM217.854 110C230.474 110 240.707 120.23 240.707 132.853C240.707 145.019 231.2 154.963 219.212 155.665C218.771 175.759 221.565 194.465 230.549 210.85L205.124 210.85C198.403 188.993 198.573 168.857 203.805 150.879C198.445 146.697 195 140.178 195 132.853C195 120.23 205.231 110 217.854 110L217.854 110Z" id="outer-eyes" fill="#FFFFFF" fill-rule="evenodd" stroke="none" clip-path="url(#clip_1)" />
    <path d="M293.816 110C281.196 110 270.963 120.23 270.963 132.853C270.963 145.019 280.47 154.963 292.461 155.665C292.902 175.759 290.105 194.465 281.121 210.847L306.543 210.847C313.27 188.991 313.099 168.854 307.865 150.879C313.225 146.694 316.67 140.178 316.67 132.853C316.67 120.23 306.439 110 293.816 110L293.816 110ZM217.854 110C230.474 110 240.707 120.23 240.707 132.853C240.707 145.019 231.2 154.963 219.212 155.665C218.771 175.759 221.565 194.465 230.549 210.85L205.124 210.85C198.403 188.993 198.573 168.857 203.805 150.879C198.445 146.697 195 140.178 195 132.853C195 120.23 205.231 110 217.854 110L217.854 110Z" id="outer-eyes" fill="#FFFFFF" fill-rule="evenodd" stroke="none" clip-path="url(#clip_1)" />
    <g id="inner-eyes" transform="translate(205.02002 118.649)" clip-path="url(#clip_1)">
      <path d="M88.962 0C81.784 0 75.963 5.821 75.963 13.004C75.963 20.181 81.784 26.002 88.962 26.002C96.144 26.002 101.96 20.181 101.96 13.004C101.96 5.821 96.144 0 88.962 0L88.962 0ZM12.998 0C20.176 0 25.997 5.821 25.997 13.004C25.997 20.181 20.176 26.002 12.998 26.002C5.81599 26.002 0 20.181 0 13.004C0 5.821 5.81599 0 12.998 0L12.998 0Z" id="eyeballs" fill="#FFFFFF" fill-rule="evenodd" stroke="none" />
      <path d="M88.961 4.77001C86.506 4.74086 84.225 6.03404 82.9894 8.15555C81.7537 10.2771 81.7543 12.8991 82.9909 15.0201C84.2274 17.1411 86.509 18.4332 88.9639 18.403C92.6965 18.3571 95.6978 15.3178 95.697 11.585C95.6962 7.85226 92.6935 4.81432 88.961 4.77001L88.961 4.77001ZM12.999 8.13201C9.26645 8.17716 6.26439 11.2158 6.2644 14.9485C6.26442 18.6813 9.26649 21.7199 12.999 21.765C14.8065 21.7653 16.5401 21.0474 17.8182 19.7692C19.0963 18.4911 19.8143 16.7576 19.814 14.95C19.8146 13.1414 19.0968 11.4073 17.8185 10.1287C16.5403 8.85011 14.8063 8.13185 12.9983 8.13202L12.999 8.13201Z" id="iris" fill="#FFFFFF" fill-rule="evenodd" stroke="none" />
    </g>
    <g id="inner-eyes" transform="translate(205.02002 118.649)" clip-path="url(#clip_1)">
      <path d="M88.962 0C81.784 0 75.963 5.821 75.963 13.004C75.963 20.181 81.784 26.002 88.962 26.002C96.144 26.002 101.96 20.181 101.96 13.004C101.96 5.821 96.144 0 88.962 0L88.962 0ZM12.998 0C20.176 0 25.997 5.821 25.997 13.004C25.997 20.181 20.176 26.002 12.998 26.002C5.81599 26.002 0 20.181 0 13.004C0 5.821 5.81599 0 12.998 0L12.998 0Z" id="eyeballs" fill="#FFFFFF" fill-rule="evenodd" stroke="none" />
      <path d="M88.961 4.77001C86.506 4.74086 84.225 6.03404 82.9894 8.15555C81.7537 10.2771 81.7543 12.8991 82.9909 15.0201C84.2274 17.1411 86.509 18.4332 88.9639 18.403C92.6965 18.3571 95.6978 15.3178 95.697 11.585C95.6962 7.85226 92.6935 4.81432 88.961 4.77001L88.961 4.77001ZM12.999 8.13201C9.26645 8.17716 6.26439 11.2158 6.2644 14.9485C6.26442 18.6813 9.26649 21.7199 12.999 21.765C14.8065 21.7653 16.5401 21.0474 17.8182 19.7692C19.0963 18.4911 19.8143 16.7576 19.814 14.95C19.8146 13.1414 19.0968 11.4073 17.8185 10.1287C16.5403 8.85011 14.8063 8.13185 12.9983 8.13202L12.999 8.13201Z" id="iris" fill="#FFFFFF" fill-rule="evenodd" stroke="none" />
    </g>
  </g>
</svg>